<svg id="Layer_1" xmlns="http://www.w3.org/2000/svg" xmlns:i="http://ns.adobe.com/AdobeIllustrator/10.0/" version="1.1" viewBox="0 0 500 116.1555006">
  <defs>
    <style>
      .st0 {
        fill: #253854;
      }
    </style>
  </defs>
  <path class="st0" d="M103.0591632,38.7990638c-6.2042236-4.7501831-13.0073242-4.2001343-21.9406738-4.7010498-1.1591797-.0327759-4.0561523-.0491333-6.953064-.0491333-2.8969727,0-5.7939453.0163574-6.953064.0491333-8.9334106.5009155-15.7365112-.0491333-21.9407349,4.7010498-5.8650513,4.4905396-6.9155884,13.8640747-7.3851929,21.1331787-.3577881,6.6328125.4290771,14.6577148,6.1329346,18.6723022,3.1796875,2.2585449,7.1043091,2.9108887,10.8807373,3.1962891,3.0496826.2038574,11.1574707.3057861,19.2653198.3057861,8.1077881,0,16.2155762-.1019287,19.2652588-.3057861,3.7764893-.2854004,7.7011108-.9377441,10.8807983-3.1962891,5.7037964-4.0145874,6.4906616-12.0394897,6.1328735-18.6723022-.4696045-7.269104-1.5201416-16.6426392-7.3851929-21.1331787ZM102.4222614,68.3765174c-.5175171,1.996582-1.305481,3.3446045-2.4089355,4.1213379l-.0131226.0092163-.0131226.0093384c-.9512939.6756592-2.6165161,1.4943848-7.0870361,1.8355713-2.6176758.1717529-10.1326904.2869263-18.7346191.2869263s-16.1172485-.1151733-18.7349243-.2869263c-2.3554688-.1793823-5.2797852-.552063-7.086792-1.8355713l-.0131226-.0093384-.0131226-.0092163c-1.1034546-.7767334-1.8914185-2.1247559-2.4089355-4.1213379-.5465088-2.1085815-.7374268-4.8010254-.5673828-8.0031128.2078857-3.2062988.5393066-6.9030151,1.4121094-10.0594482.755127-2.730896,1.7840576-4.6101685,3.0581055-5.5855713,3.2275391-2.4711304,6.730957-2.7133179,13.7213745-2.9890137,1.2755127-.050293,2.5933228-.1022339,3.9874268-.1792603,1.0588379-.0266113,3.6370239-.0436401,6.6452637-.0436401,3.0081787,0,5.5864258.0170288,6.6452026.0436401,1.394104.0770264,2.7119141.1289673,3.9874268.1792603,6.9904175.2756958,10.4938354.5178833,13.7213745,2.9890137,1.2741089.9754028,2.3029785,2.8546753,3.0581055,5.5855713.8728027,3.1564331,1.2042236,6.8531494,1.4121094,10.0594482.1700439,3.2020874-.020813,5.8945312-.5673828,8.0031128Z"/>
  <circle class="st0" cx="61.9073688" cy="58.0777503" r="6.5341797"/>
  <circle class="st0" cx="86.423421" cy="58.0777503" r="6.5341797"/>
  <path class="st0" d="M177.4275104,39.070304c-.690918,0-1.284668.1157227-1.7807617.3457031-.4960938.2304688-.956543.5761719-1.3818359,1.0366211-.425293.4609375-.9570312,1.1518555-1.5947266,2.0727539l-10.4586792,14.8660278-10.458313-14.8660278c-.6557617-.9208984-1.1918945-1.6118164-1.6083984-2.0727539-.4165039-.4604492-.8637695-.8061523-1.3422852-1.0366211-.4780273-.2299805-1.0722656-.3457031-1.7802734-.3457031-1.3115234,0-2.2817383.3813477-2.9106445,1.1430664-.6289062.762207-.9433594,1.8515625-.9433594,3.269043v28.8105469c0,1.4179688.3144531,2.5078125.9433594,3.2695312s1.5991211,1.1425781,2.9106445,1.1425781c1.3286133,0,2.3120117-.3808594,2.9501953-1.1425781.6376953-.7617188.956543-1.8515625.956543-3.2695312v-18.7558594l6.7773438,9.5859375c.0175781.0185547.0356445.0400391.0532227.0664062.0175781.0273438.0356445.0585938.0532227.09375.6201172.8681641,1.1074219,1.5058594,1.4619141,1.9130859.3540039.4082031.7617188.7265625,1.2226562.9570312.4604492.2304688,1.0273438.3457031,1.7011719.3457031.690918,0,1.262207-.1103516,1.7138672-.3320312.4521484-.2216797.8637695-.5537109,1.2363281-.9970703.3720703-.4423828.8945312-1.1425781,1.5678711-2.0996094l6.8837891-9.6881714v18.9108276c0,1.4179688.3144531,2.5078125.9433594,3.2695312s1.590332,1.1425781,2.8837891,1.1425781c1.3291016,0,2.3125-.3808594,2.9501953-1.1425781.6381836-.7617188.9570312-1.8515625.9570312-3.2695312v-28.8105469c0-1.4174805-.3188477-2.5068359-.9570312-3.269043-.6376953-.7617188-1.6210938-1.1430664-2.9501953-1.1430664Z"/>
  <path class="st0" d="M221.7605182,46.5654212c1.2578125,0,2.2368164-.2875977,2.9370117-.8637695.699707-.5756836,1.0498047-1.4482422,1.0498047-2.6176758,0-1.1870117-.3500977-2.0732422-1.0498047-2.6582031-.7001953-.5844727-1.6791992-.8769531-2.9370117-.8769531h-17.4882812c-1.3115234,0-2.2817383.3813477-2.9106445,1.1430664s-.9433594,1.8515625-.9433594,3.269043v27.8535156c0,1.4179688.3144531,2.5078125.9433594,3.2695312s1.5991211,1.1425781,2.9106445,1.1425781h17.4882812c1.2578125,0,2.2368164-.2919922,2.9370117-.8769531.699707-.5849609,1.0498047-1.4707031,1.0498047-2.6582031,0-1.1689453-.3500977-2.0419922-1.0498047-2.6181641-.7001953-.5751953-1.6791992-.8632812-2.9370117-.8632812h-13.581543v-8.1601562h11.3754883c1.2578125,0,2.2329102-.2871094,2.9238281-.8632812.690918-.5751953,1.0366211-1.456543,1.0366211-2.644043,0-1.1699219-.3500977-2.0507812-1.0498047-2.6445312-.7001953-.59375-1.6704102-.890625-2.9106445-.890625h-11.3754883v-7.4418945h13.581543Z"/>
  <path class="st0" d="M268.9904987,69.7148353l-5.3568726-6.234314c1.1077271-.4169922,2.1036377-.9280396,2.9642944-1.5527954,2.5869141-1.8779297,3.8808594-4.996582,3.8808594-9.3549805,0-4.4125977-1.3251953-7.6860352-3.9736328-9.8212891-2.6494141-2.1347656-6.3212891-3.2026367-11.0166016-3.2026367h-8.7441406c-2.5698242,0-3.8540039,1.4711914-3.8540039,4.4121094v28.3320312c0,1.4179688.3095703,2.5078125.9301758,3.2695312.6201172.7617188,1.5947266,1.1425781,2.9238281,1.1425781,2.5683594,0,3.8535156-1.4707031,3.8535156-4.4121094v-7.5478516h4.5394287l7.9527588,9.9130859c.6201172.7626953,1.1914062,1.2939453,1.7138672,1.5947266.5224609.3017578,1.1650391.4521484,1.9267578.4521484.7978516,0,1.484375-.1816406,2.0605469-.5449219.5751953-.3632812,1.0048828-.8193359,1.2890625-1.3691406.2832031-.5488281.4248047-1.0800781.4248047-1.5947266,0-.6201172-.0976562-1.1865234-.2919922-1.7001953-.1953125-.5146484-.6025391-1.1074219-1.2226562-1.78125ZM250.5979205,46.5654212h5.1035156c2.2148438,0,3.8974609.4746094,5.0498047,1.421875,1.1513672.9477539,1.7275391,2.3344727,1.7275391,4.159668s-.5761719,3.2070312-1.7275391,4.1464844c-1.1523438.9394531-2.8349609,1.4082031-5.0498047,1.4082031h-5.1035156v-11.1362305Z"/>
  <path class="st0" d="M298.7971393,47.7348548c1.4443359-.956543,3.1767578-1.4350586,5.1962891-1.4350586,2.0732422,0,3.6982422.3764648,4.8769531,1.1293945,1.1787109.753418,2.0957031,1.7324219,2.7509766,2.9375.4423828.7617188.9306641,1.2578125,1.4619141,1.4882812s1.0898438.3447266,1.6748047.3447266c.5839844,0,1.1425781-.1542969,1.6738281-.4648438.53125-.3095703.9658203-.7441406,1.3027344-1.3017578.3359375-.5585938.5048828-1.1835938.5048828-1.8740234,0-.4428711-.0625-.9169922-.1865234-1.421875-.1240234-.5053711-.3007812-.9970703-.53125-1.4750977l-.265625-.4785156c-1.0986328-1.8608398-2.7734375-3.3530273-5.0234375-4.4785156-2.25-1.125-4.9970703-1.6879883-8.2392578-1.6879883-3.5615234,0-6.6806641.7890625-9.3554688,2.3657227-2.6757812,1.5771484-4.7402344,3.7919922-6.1933594,6.6445312-1.453125,2.8530273-2.1787109,6.1391602-2.1787109,9.8608398,0,3.7202148.7255859,7.0073242,2.1787109,9.8598633,1.453125,2.8535156,3.5175781,5.0673828,6.1933594,6.6445312,2.6748047,1.5771484,5.7939453,2.3652344,9.3554688,2.3652344,3.2421875,0,5.9892578-.5615234,8.2392578-1.6875,2.25-1.125,3.9248047-2.6181641,5.0234375-4.4785156l.265625-.4785156c.2304688-.4785156.4072266-.9697266.53125-1.4746094s.1865234-.9794922.1865234-1.421875c0-.6914062-.1689453-1.3164062-.5048828-1.8740234-.3369141-.5585938-.7714844-.9921875-1.3027344-1.3027344-.53125-.3095703-1.0898438-.4648438-1.6738281-.4648438-.5673828,0-1.1210938.1240234-1.6611328.3720703-.5410156.2480469-1.0332031.7441406-1.4755859,1.4882812-.6738281,1.2050781-1.5947266,2.1796875-2.7636719,2.9238281-1.1699219.7441406-2.7910156,1.1162109-4.8642578,1.1162109-2.0195312,0-3.7519531-.4785156-5.1962891-1.4355469-1.4443359-.9560547-2.5380859-2.3076172-3.2822266-4.0527344s-1.1162109-3.7783203-1.1162109-6.0991211c0-2.3212891.3720703-4.3544922,1.1162109-6.0996094s1.8378906-3.0966797,3.2822266-4.0537109Z"/>
  <path class="st0" d="M361.7209674,39.070304c-1.2929688,0-2.2548828.3813477-2.8837891,1.1430664-.6289062.762207-.9433594,1.8515625-.9433594,3.269043v10.8969727h-15.0693359v-10.9023438c0-1.4155273-.3193359-2.5043945-.9570312-3.2651367s-1.6210938-1.1416016-2.9501953-1.1416016c-1.3115234,0-2.2822266.3813477-2.9101562,1.1430664-.6298828.762207-.9443359,1.8515625-.9443359,3.269043v28.8105469c0,1.4179688.3144531,2.5078125.9443359,3.2695312.6279297.7617188,1.5986328,1.1425781,2.9101562,1.1425781,1.3291016,0,2.3125-.3808594,2.9501953-1.1425781.6376953-.7626953.9570312-1.8525391.9570312-3.2705078v-10.8691406h15.0693359v10.8701172c0,1.4179688.3144531,2.5078125.9433594,3.2695312s1.5908203,1.1425781,2.8837891,1.1425781c1.3466797,0,2.3388672-.3808594,2.9775391-1.1425781.6376953-.7617188.9560547-1.8515625.9560547-3.2695312v-28.8105469c0-1.4174805-.3183594-2.5068359-.9560547-3.269043-.6386719-.7617188-1.6308594-1.1430664-2.9775391-1.1430664Z"/>
  <path class="st0" d="M428.9104205,40.9838782c-2.2158203-1.3110352-4.8994141-1.9667969-8.0537109-1.9667969s-5.8378906.6557617-8.0527344,1.9667969c-2.2158203,1.3115234-3.8984375,3.2387695-5.0498047,5.7807617-1.1523438,2.543457-1.7275391,5.6577148-1.7275391,9.3422852v16.1860352c0,1.3818359.3134766,2.4628906.9433594,3.2421875.6289062.7802734,1.5898438,1.1699219,2.8837891,1.1699219,1.3457031,0,2.3388672-.3808594,2.9765625-1.1425781s.9570312-1.8515625.9570312-3.2695312v-7.1230469h14.1396484v7.1230469c0,1.4179688.3183594,2.5078125.9570312,3.2695312.6376953.7617188,1.6298828,1.1425781,2.9765625,1.1425781,1.2929688,0,2.2548828-.3896484,2.8837891-1.1699219.6289062-.7792969.9433594-1.8603516.9433594-3.2421875v-16.1860352c0-3.6845703-.5761719-6.7988281-1.7275391-9.3422852-1.1523438-2.5419922-2.8349609-4.4692383-5.0498047-5.7807617ZM427.9270221,58.2602454h-14.1396484v-1.7275391c0-2.3388672.2294922-4.2529297.6904297-5.7412109s1.2099609-2.6088867,2.2460938-3.3623047c1.0371094-.7529297,2.4140625-1.1293945,4.1328125-1.1293945s3.0966797.3764648,4.1328125,1.1293945c1.0371094.753418,1.7851562,1.8789062,2.2460938,3.3759766s.6914062,3.40625.6914062,5.7275391v1.7275391Z"/>
  <path class="st0" d="M461.2297565,40.2133704c-.6376953-.7617188-1.6210938-1.1430664-2.9501953-1.1430664-1.3115234,0-2.2822266.3813477-2.9101562,1.1430664-.6298828.762207-.9443359,1.8515625-.9443359,3.269043v28.8105469c0,1.4179688.3144531,2.5078125.9443359,3.2695312.6279297.7617188,1.5986328,1.1425781,2.9101562,1.1425781,1.3291016,0,2.3125-.3808594,2.9501953-1.1425781s.9570312-1.8515625.9570312-3.2695312v-28.8105469c0-1.4174805-.3193359-2.5068359-.9570312-3.269043Z"/>
  <path class="st0" d="M387.3889362,56.1870032c-.7177734-.4072266-1.5380859-.6113281-2.4589844-.6113281-.8857422,0-1.6875.2041016-2.4052734.6113281-.7177734.4082031-1.2802734.9794922-1.6875,1.7148438-.4082031.7353516-.6113281,1.5541992-.6113281,2.4575195,0,.9042969.203125,1.7148438.6113281,2.4326172.4072266.7177734.9697266,1.2802734,1.6875,1.6875s1.5195312.6113281,2.4052734.6113281c.9208984,0,1.7412109-.2041016,2.4589844-.6113281s1.2792969-.9697266,1.6875-1.6875c.4072266-.7177734.6113281-1.5283203.6113281-2.4326172,0-.9033203-.2041016-1.722168-.6113281-2.4575195-.4082031-.7353516-.9697266-1.3066406-1.6875-1.7148438Z"/>
</svg>
